<svg width="24" height="24" viewBox="0 0 24 24" fill="none" xmlns="http://www.w3.org/2000/svg">
<g id="Icons / euro_symbol">
<mask id="mask0_409_606" style="mask-type:alpha" maskUnits="userSpaceOnUse" x="0" y="0" width="24" height="24">
<rect id="Bounding box" width="24" height="24" fill="#D9D9D9"/>
</mask>
<g mask="url(#mask0_409_606)">
<path id="euro_symbol" d="M15 21C13.0333 21 11.2833 20.4417 9.75 19.325C8.21667 18.2083 7.13333 16.7667 6.5 15H3V13H6.05C6.01667 12.8167 6 12.65 6 12.5V11.5C6 11.35 6.01667 11.1833 6.05 11H3V9H6.5C7.13333 7.23333 8.21667 5.79167 9.75 4.675C11.2833 3.55833 13.0333 3 15 3C16.15 3 17.2375 3.2 18.2625 3.6C19.2875 4 20.2 4.56667 21 5.3L19.25 7.05C18.6667 6.56667 18.0125 6.1875 17.2875 5.9125C16.5625 5.6375 15.8 5.5 15 5.5C13.75 5.5 12.6125 5.82083 11.5875 6.4625C10.5625 7.10417 9.78333 7.95 9.25 9H15V11H8.6C8.56667 11.1833 8.54167 11.35 8.525 11.5C8.50833 11.65 8.5 11.8167 8.5 12C8.5 12.1833 8.50833 12.35 8.525 12.5C8.54167 12.65 8.56667 12.8167 8.6 13H15V15H9.25C9.78333 16.05 10.5625 16.8958 11.5875 17.5375C12.6125 18.1792 13.75 18.5 15 18.5C15.8 18.5 16.5708 18.3625 17.3125 18.0875C18.0542 17.8125 18.7 17.4333 19.25 16.95L21 18.7C20.2 19.4333 19.2875 20 18.2625 20.4C17.2375 20.8 16.15 21 15 21Z" fill="#004F96"/>
</g>
</g>
</svg>
