<svg width="20" height="20" viewBox="0 0 20 20" fill="none" xmlns="http://www.w3.org/2000/svg">
<g id="Icons / place">
<path id="Vector" d="M10.0002 10.0003C9.0835 10.0003 8.3335 9.25033 8.3335 8.33366C8.3335 7.41699 9.0835 6.66699 10.0002 6.66699C10.9168 6.66699 11.6668 7.41699 11.6668 8.33366C11.6668 9.25033 10.9168 10.0003 10.0002 10.0003ZM15.0002 8.50033C15.0002 5.47533 12.7918 3.33366 10.0002 3.33366C7.2085 3.33366 5.00016 5.47533 5.00016 8.50033C5.00016 10.4503 6.62516 13.0337 10.0002 16.117C13.3752 13.0337 15.0002 10.4503 15.0002 8.50033ZM10.0002 1.66699C13.5002 1.66699 16.6668 4.35033 16.6668 8.50033C16.6668 11.267 14.4418 14.542 10.0002 18.3337C5.5585 14.542 3.3335 11.267 3.3335 8.50033C3.3335 4.35033 6.50016 1.66699 10.0002 1.66699Z" fill="#004F96"/>
</g>
</svg>
