<svg width="1196" height="268" viewBox="0 0 1196 268" fill="none" xmlns="http://www.w3.org/2000/svg">
<path d="M864.111 138.597V133.991V132.01V123.355V122.313V117.707H770.698V0H684.393V1.96382L698.574 22.0712V245.911L684.393 266.001V267.983H770.698V138.597H864.111Z" fill="black"/>
<path d="M801.268 256.548V267.983H875.338L910.739 171.582H902.571L801.268 256.548Z" fill="black"/>
<path d="M900.101 91.2392L870.609 0H799.406V11.6786L891.759 91.2392H900.101Z" fill="black"/>
<path d="M265.467 1.96382L279.648 22.0712V245.911L265.467 266.019V267.983H365.953V266.019L351.772 245.911V22.0712L365.953 1.96382V0H265.467V1.96382Z" fill="black"/>
<path d="M555.526 1.96382L569.707 22.0712V117.707H480.639V22.0712L494.82 1.96382V0H394.334V1.96382L408.515 22.0712V245.911L394.334 266.019V267.983H494.82V266.019L480.639 245.911V138.597H569.707V245.911L555.526 266.019V267.983H656.012V266.019L641.831 245.911V22.0712L656.012 1.96382V0H555.526V1.96382Z" fill="black"/>
<path d="M234.88 0H146.211V11.6786L0 264.437V267.983H88.5295V256.547L234.88 3.54531V0Z" fill="black"/>
<path d="M127.824 256.548V267.983H202.433L240.563 171.582H232.395L127.824 256.548Z" fill="black"/>
<path d="M106.847 11.6786V0H34.4977L6.65625 91.274H15.0156L106.847 11.6786Z" fill="black"/>
<path d="M1110.08 142.664C1148.69 132.41 1169.98 109.383 1169.98 79.0394C1169.98 39.6241 1133.33 0.0175781 1066.33 0.0175781H927.857V1.9814L942.056 22.0887V245.929L927.857 266.019V267.983H1028.36V266.019L1014.18 245.929V20.907H1045.06C1078.55 20.907 1091.17 40.4235 1091.17 81.8027C1091.17 120.818 1078.17 139.136 1046.64 139.136H1032.85V147.808L1114.82 268H1196V266.818L1110.08 142.681V142.664Z" fill="black"/>
</svg>
