<svg width="25" height="24" viewBox="0 0 25 24" fill="none" xmlns="http://www.w3.org/2000/svg">
<g id="Icons / place">
<path id="Vector" d="M12.666 12C11.566 12 10.666 11.1 10.666 10C10.666 8.9 11.566 8 12.666 8C13.766 8 14.666 8.9 14.666 10C14.666 11.1 13.766 12 12.666 12ZM18.666 10.2C18.666 6.57 16.016 4 12.666 4C9.31602 4 6.66602 6.57 6.66602 10.2C6.66602 12.54 8.61602 15.64 12.666 19.34C16.716 15.64 18.666 12.54 18.666 10.2ZM12.666 2C16.866 2 20.666 5.22 20.666 10.2C20.666 13.52 17.996 17.45 12.666 22C7.33602 17.45 4.66602 13.52 4.66602 10.2C4.66602 5.22 8.46602 2 12.666 2Z" fill="#1B1B1B" fill-opacity="0.25"/>
</g>
</svg>
